<svg xmlns="http://www.w3.org/2000/svg" version="1.1" width="264" height="264"><line x1="0" y1="0" x2="256" y2="0" style="stroke:rgb(0,0,0);stroke-width:0.2"/><line x1="0" y1="256" x2="0" y2="0" style="stroke:rgb(0,0,0);stroke-width:0.2"/><rect x="176" y="0" width="8" height="8" fill="red" style="stroke:rgb(255,255,255);stroke-width:0;"/><line x1="0" y1="8" x2="8" y2="8" style="stroke:rgb(0,0,0);stroke-width:1.2"/><line x1="16" y1="8" x2="40" y2="8" style="stroke:rgb(0,0,0);stroke-width:1.2"/><line x1="96" y1="8" x2="112" y2="8" style="stroke:rgb(0,0,0);stroke-width:1.2"/><line x1="208" y1="8" x2="216" y2="8" style="stroke:rgb(0,0,0);stroke-width:1.2"/><line x1="240" y1="8" x2="248" y2="8" style="stroke:rgb(0,0,0);stroke-width:1.2"/><line x1="56" y1="16" x2="64" y2="16" style="stroke:rgb(0,0,0);stroke-width:1.2"/><line x1="72" y1="16" x2="96" y2="16" style="stroke:rgb(0,0,0);stroke-width:1.2"/><line x1="112" y1="16" x2="144" y2="16" style="stroke:rgb(0,0,0);stroke-width:1.2"/><line x1="160" y1="16" x2="216" y2="16" style="stroke:rgb(0,0,0);stroke-width:1.2"/><line x1="0" y1="24" x2="8" y2="24" style="stroke:rgb(0,0,0);stroke-width:1.2"/><line x1="16" y1="24" x2="32" y2="24" style="stroke:rgb(0,0,0);stroke-width:1.2"/><line x1="40" y1="24" x2="48" y2="24" style="stroke:rgb(0,0,0);stroke-width:1.2"/><line x1="64" y1="24" x2="72" y2="24" style="stroke:rgb(0,0,0);stroke-width:1.2"/><line x1="136" y1="24" x2="144" y2="24" style="stroke:rgb(0,0,0);stroke-width:1.2"/><line x1="160" y1="24" x2="176" y2="24" style="stroke:rgb(0,0,0);stroke-width:1.2"/><line x1="184" y1="24" x2="208" y2="24" style="stroke:rgb(0,0,0);stroke-width:1.2"/><line x1="216" y1="24" x2="224" y2="24" style="stroke:rgb(0,0,0);stroke-width:1.2"/><line x1="232" y1="24" x2="256" y2="24" style="stroke:rgb(0,0,0);stroke-width:1.2"/><line x1="24" y1="32" x2="32" y2="32" style="stroke:rgb(0,0,0);stroke-width:1.2"/><line x1="88" y1="32" x2="104" y2="32" style="stroke:rgb(0,0,0);stroke-width:1.2"/><line x1="112" y1="32" x2="120" y2="32" style="stroke:rgb(0,0,0);stroke-width:1.2"/><line x1="128" y1="32" x2="136" y2="32" style="stroke:rgb(0,0,0);stroke-width:1.2"/><line x1="160" y1="32" x2="168" y2="32" style="stroke:rgb(0,0,0);stroke-width:1.2"/><line x1="176" y1="32" x2="192" y2="32" style="stroke:rgb(0,0,0);stroke-width:1.2"/><line x1="8" y1="40" x2="16" y2="40" style="stroke:rgb(0,0,0);stroke-width:1.2"/><line x1="64" y1="40" x2="88" y2="40" style="stroke:rgb(0,0,0);stroke-width:1.2"/><line x1="120" y1="40" x2="144" y2="40" style="stroke:rgb(0,0,0);stroke-width:1.2"/><line x1="216" y1="40" x2="256" y2="40" style="stroke:rgb(0,0,0);stroke-width:1.2"/><line x1="0" y1="48" x2="32" y2="48" style="stroke:rgb(0,0,0);stroke-width:1.2"/><line x1="40" y1="48" x2="48" y2="48" style="stroke:rgb(0,0,0);stroke-width:1.2"/><line x1="56" y1="48" x2="72" y2="48" style="stroke:rgb(0,0,0);stroke-width:1.2"/><line x1="80" y1="48" x2="120" y2="48" style="stroke:rgb(0,0,0);stroke-width:1.2"/><line x1="152" y1="48" x2="168" y2="48" style="stroke:rgb(0,0,0);stroke-width:1.2"/><line x1="176" y1="48" x2="184" y2="48" style="stroke:rgb(0,0,0);stroke-width:1.2"/><line x1="216" y1="48" x2="224" y2="48" style="stroke:rgb(0,0,0);stroke-width:1.2"/><line x1="232" y1="48" x2="240" y2="48" style="stroke:rgb(0,0,0);stroke-width:1.2"/><line x1="248" y1="48" x2="256" y2="48" style="stroke:rgb(0,0,0);stroke-width:1.2"/><line x1="24" y1="56" x2="40" y2="56" style="stroke:rgb(0,0,0);stroke-width:1.2"/><line x1="80" y1="56" x2="88" y2="56" style="stroke:rgb(0,0,0);stroke-width:1.2"/><line x1="128" y1="56" x2="144" y2="56" style="stroke:rgb(0,0,0);stroke-width:1.2"/><line x1="176" y1="56" x2="192" y2="56" style="stroke:rgb(0,0,0);stroke-width:1.2"/><line x1="200" y1="56" x2="208" y2="56" style="stroke:rgb(0,0,0);stroke-width:1.2"/><line x1="240" y1="56" x2="248" y2="56" style="stroke:rgb(0,0,0);stroke-width:1.2"/><line x1="72" y1="64" x2="80" y2="64" style="stroke:rgb(0,0,0);stroke-width:1.2"/><line x1="104" y1="64" x2="112" y2="64" style="stroke:rgb(0,0,0);stroke-width:1.2"/><line x1="120" y1="64" x2="128" y2="64" style="stroke:rgb(0,0,0);stroke-width:1.2"/><line x1="160" y1="64" x2="168" y2="64" style="stroke:rgb(0,0,0);stroke-width:1.2"/><line x1="216" y1="64" x2="224" y2="64" style="stroke:rgb(0,0,0);stroke-width:1.2"/><line x1="0" y1="72" x2="32" y2="72" style="stroke:rgb(0,0,0);stroke-width:1.2"/><line x1="40" y1="72" x2="128" y2="72" style="stroke:rgb(0,0,0);stroke-width:1.2"/><line x1="136" y1="72" x2="184" y2="72" style="stroke:rgb(0,0,0);stroke-width:1.2"/><line x1="192" y1="72" x2="240" y2="72" style="stroke:rgb(0,0,0);stroke-width:1.2"/><line x1="248" y1="72" x2="256" y2="72" style="stroke:rgb(0,0,0);stroke-width:1.2"/><line x1="8" y1="80" x2="32" y2="80" style="stroke:rgb(0,0,0);stroke-width:1.2"/><line x1="40" y1="80" x2="48" y2="80" style="stroke:rgb(0,0,0);stroke-width:1.2"/><line x1="216" y1="80" x2="224" y2="80" style="stroke:rgb(0,0,0);stroke-width:1.2"/><line x1="0" y1="88" x2="8" y2="88" style="stroke:rgb(0,0,0);stroke-width:1.2"/><line x1="16" y1="88" x2="24" y2="88" style="stroke:rgb(0,0,0);stroke-width:1.2"/><line x1="64" y1="88" x2="72" y2="88" style="stroke:rgb(0,0,0);stroke-width:1.2"/><line x1="80" y1="88" x2="88" y2="88" style="stroke:rgb(0,0,0);stroke-width:1.2"/><line x1="96" y1="88" x2="104" y2="88" style="stroke:rgb(0,0,0);stroke-width:1.2"/><line x1="120" y1="88" x2="152" y2="88" style="stroke:rgb(0,0,0);stroke-width:1.2"/><line x1="160" y1="88" x2="208" y2="88" style="stroke:rgb(0,0,0);stroke-width:1.2"/><line x1="232" y1="88" x2="240" y2="88" style="stroke:rgb(0,0,0);stroke-width:1.2"/><line x1="32" y1="96" x2="48" y2="96" style="stroke:rgb(0,0,0);stroke-width:1.2"/><line x1="56" y1="96" x2="72" y2="96" style="stroke:rgb(0,0,0);stroke-width:1.2"/><line x1="80" y1="96" x2="88" y2="96" style="stroke:rgb(0,0,0);stroke-width:1.2"/><line x1="96" y1="96" x2="104" y2="96" style="stroke:rgb(0,0,0);stroke-width:1.2"/><line x1="112" y1="96" x2="120" y2="96" style="stroke:rgb(0,0,0);stroke-width:1.2"/><line x1="208" y1="96" x2="232" y2="96" style="stroke:rgb(0,0,0);stroke-width:1.2"/><line x1="240" y1="96" x2="256" y2="96" style="stroke:rgb(0,0,0);stroke-width:1.2"/><line x1="0" y1="104" x2="8" y2="104" style="stroke:rgb(0,0,0);stroke-width:1.2"/><line x1="24" y1="104" x2="40" y2="104" style="stroke:rgb(0,0,0);stroke-width:1.2"/><line x1="64" y1="104" x2="72" y2="104" style="stroke:rgb(0,0,0);stroke-width:1.2"/><line x1="104" y1="104" x2="112" y2="104" style="stroke:rgb(0,0,0);stroke-width:1.2"/><line x1="120" y1="104" x2="136" y2="104" style="stroke:rgb(0,0,0);stroke-width:1.2"/><line x1="144" y1="104" x2="160" y2="104" style="stroke:rgb(0,0,0);stroke-width:1.2"/><line x1="168" y1="104" x2="184" y2="104" style="stroke:rgb(0,0,0);stroke-width:1.2"/><line x1="192" y1="104" x2="216" y2="104" style="stroke:rgb(0,0,0);stroke-width:1.2"/><line x1="224" y1="104" x2="256" y2="104" style="stroke:rgb(0,0,0);stroke-width:1.2"/><line x1="0" y1="112" x2="8" y2="112" style="stroke:rgb(0,0,0);stroke-width:1.2"/><line x1="16" y1="112" x2="32" y2="112" style="stroke:rgb(0,0,0);stroke-width:1.2"/><line x1="80" y1="112" x2="88" y2="112" style="stroke:rgb(0,0,0);stroke-width:1.2"/><line x1="128" y1="112" x2="136" y2="112" style="stroke:rgb(0,0,0);stroke-width:1.2"/><line x1="144" y1="112" x2="152" y2="112" style="stroke:rgb(0,0,0);stroke-width:1.2"/><line x1="216" y1="112" x2="224" y2="112" style="stroke:rgb(0,0,0);stroke-width:1.2"/><line x1="232" y1="112" x2="248" y2="112" style="stroke:rgb(0,0,0);stroke-width:1.2"/><line x1="8" y1="120" x2="16" y2="120" style="stroke:rgb(0,0,0);stroke-width:1.2"/><line x1="32" y1="120" x2="48" y2="120" style="stroke:rgb(0,0,0);stroke-width:1.2"/><line x1="56" y1="120" x2="88" y2="120" style="stroke:rgb(0,0,0);stroke-width:1.2"/><line x1="104" y1="120" x2="120" y2="120" style="stroke:rgb(0,0,0);stroke-width:1.2"/><line x1="168" y1="120" x2="176" y2="120" style="stroke:rgb(0,0,0);stroke-width:1.2"/><line x1="184" y1="120" x2="200" y2="120" style="stroke:rgb(0,0,0);stroke-width:1.2"/><line x1="216" y1="120" x2="232" y2="120" style="stroke:rgb(0,0,0);stroke-width:1.2"/><line x1="96" y1="128" x2="112" y2="128" style="stroke:rgb(0,0,0);stroke-width:1.2"/><line x1="128" y1="128" x2="144" y2="128" style="stroke:rgb(0,0,0);stroke-width:1.2"/><line x1="152" y1="128" x2="160" y2="128" style="stroke:rgb(0,0,0);stroke-width:1.2"/><line x1="200" y1="128" x2="208" y2="128" style="stroke:rgb(0,0,0);stroke-width:1.2"/><line x1="0" y1="136" x2="48" y2="136" style="stroke:rgb(0,0,0);stroke-width:1.2"/><line x1="56" y1="136" x2="216" y2="136" style="stroke:rgb(0,0,0);stroke-width:1.2"/><line x1="224" y1="136" x2="256" y2="136" style="stroke:rgb(0,0,0);stroke-width:1.2"/><line x1="64" y1="144" x2="72" y2="144" style="stroke:rgb(0,0,0);stroke-width:1.2"/><line x1="120" y1="144" x2="128" y2="144" style="stroke:rgb(0,0,0);stroke-width:1.2"/><line x1="144" y1="144" x2="152" y2="144" style="stroke:rgb(0,0,0);stroke-width:1.2"/><line x1="160" y1="144" x2="256" y2="144" style="stroke:rgb(0,0,0);stroke-width:1.2"/><line x1="24" y1="152" x2="32" y2="152" style="stroke:rgb(0,0,0);stroke-width:1.2"/><line x1="48" y1="152" x2="56" y2="152" style="stroke:rgb(0,0,0);stroke-width:1.2"/><line x1="80" y1="152" x2="88" y2="152" style="stroke:rgb(0,0,0);stroke-width:1.2"/><line x1="96" y1="152" x2="120" y2="152" style="stroke:rgb(0,0,0);stroke-width:1.2"/><line x1="144" y1="152" x2="152" y2="152" style="stroke:rgb(0,0,0);stroke-width:1.2"/><line x1="160" y1="152" x2="192" y2="152" style="stroke:rgb(0,0,0);stroke-width:1.2"/><line x1="0" y1="160" x2="32" y2="160" style="stroke:rgb(0,0,0);stroke-width:1.2"/><line x1="64" y1="160" x2="80" y2="160" style="stroke:rgb(0,0,0);stroke-width:1.2"/><line x1="128" y1="160" x2="136" y2="160" style="stroke:rgb(0,0,0);stroke-width:1.2"/><line x1="152" y1="160" x2="160" y2="160" style="stroke:rgb(0,0,0);stroke-width:1.2"/><line x1="184" y1="160" x2="192" y2="160" style="stroke:rgb(0,0,0);stroke-width:1.2"/><line x1="200" y1="160" x2="216" y2="160" style="stroke:rgb(0,0,0);stroke-width:1.2"/><line x1="232" y1="160" x2="248" y2="160" style="stroke:rgb(0,0,0);stroke-width:1.2"/><line x1="0" y1="168" x2="16" y2="168" style="stroke:rgb(0,0,0);stroke-width:1.2"/><line x1="40" y1="168" x2="64" y2="168" style="stroke:rgb(0,0,0);stroke-width:1.2"/><line x1="96" y1="168" x2="104" y2="168" style="stroke:rgb(0,0,0);stroke-width:1.2"/><line x1="120" y1="168" x2="128" y2="168" style="stroke:rgb(0,0,0);stroke-width:1.2"/><line x1="0" y1="176" x2="8" y2="176" style="stroke:rgb(0,0,0);stroke-width:1.2"/><line x1="32" y1="176" x2="104" y2="176" style="stroke:rgb(0,0,0);stroke-width:1.2"/><line x1="112" y1="176" x2="120" y2="176" style="stroke:rgb(0,0,0);stroke-width:1.2"/><line x1="152" y1="176" x2="160" y2="176" style="stroke:rgb(0,0,0);stroke-width:1.2"/><line x1="168" y1="176" x2="184" y2="176" style="stroke:rgb(0,0,0);stroke-width:1.2"/><line x1="192" y1="176" x2="216" y2="176" style="stroke:rgb(0,0,0);stroke-width:1.2"/><line x1="224" y1="176" x2="232" y2="176" style="stroke:rgb(0,0,0);stroke-width:1.2"/><line x1="240" y1="176" x2="248" y2="176" style="stroke:rgb(0,0,0);stroke-width:1.2"/><line x1="96" y1="184" x2="112" y2="184" style="stroke:rgb(0,0,0);stroke-width:1.2"/><line x1="128" y1="184" x2="136" y2="184" style="stroke:rgb(0,0,0);stroke-width:1.2"/><line x1="152" y1="184" x2="208" y2="184" style="stroke:rgb(0,0,0);stroke-width:1.2"/><line x1="216" y1="184" x2="224" y2="184" style="stroke:rgb(0,0,0);stroke-width:1.2"/><line x1="232" y1="184" x2="240" y2="184" style="stroke:rgb(0,0,0);stroke-width:1.2"/><line x1="248" y1="184" x2="256" y2="184" style="stroke:rgb(0,0,0);stroke-width:1.2"/><line x1="0" y1="192" x2="24" y2="192" style="stroke:rgb(0,0,0);stroke-width:1.2"/><line x1="32" y1="192" x2="40" y2="192" style="stroke:rgb(0,0,0);stroke-width:1.2"/><line x1="56" y1="192" x2="64" y2="192" style="stroke:rgb(0,0,0);stroke-width:1.2"/><line x1="88" y1="192" x2="96" y2="192" style="stroke:rgb(0,0,0);stroke-width:1.2"/><line x1="120" y1="192" x2="128" y2="192" style="stroke:rgb(0,0,0);stroke-width:1.2"/><line x1="144" y1="192" x2="184" y2="192" style="stroke:rgb(0,0,0);stroke-width:1.2"/><line x1="200" y1="192" x2="208" y2="192" style="stroke:rgb(0,0,0);stroke-width:1.2"/><line x1="240" y1="192" x2="256" y2="192" style="stroke:rgb(0,0,0);stroke-width:1.2"/><line x1="48" y1="200" x2="80" y2="200" style="stroke:rgb(0,0,0);stroke-width:1.2"/><line x1="104" y1="200" x2="112" y2="200" style="stroke:rgb(0,0,0);stroke-width:1.2"/><line x1="160" y1="200" x2="184" y2="200" style="stroke:rgb(0,0,0);stroke-width:1.2"/><line x1="216" y1="200" x2="224" y2="200" style="stroke:rgb(0,0,0);stroke-width:1.2"/><line x1="16" y1="208" x2="24" y2="208" style="stroke:rgb(0,0,0);stroke-width:1.2"/><line x1="80" y1="208" x2="88" y2="208" style="stroke:rgb(0,0,0);stroke-width:1.2"/><line x1="96" y1="208" x2="104" y2="208" style="stroke:rgb(0,0,0);stroke-width:1.2"/><line x1="112" y1="208" x2="128" y2="208" style="stroke:rgb(0,0,0);stroke-width:1.2"/><line x1="192" y1="208" x2="232" y2="208" style="stroke:rgb(0,0,0);stroke-width:1.2"/><line x1="240" y1="208" x2="256" y2="208" style="stroke:rgb(0,0,0);stroke-width:1.2"/><line x1="8" y1="216" x2="40" y2="216" style="stroke:rgb(0,0,0);stroke-width:1.2"/><line x1="48" y1="216" x2="56" y2="216" style="stroke:rgb(0,0,0);stroke-width:1.2"/><line x1="64" y1="216" x2="72" y2="216" style="stroke:rgb(0,0,0);stroke-width:1.2"/><line x1="80" y1="216" x2="104" y2="216" style="stroke:rgb(0,0,0);stroke-width:1.2"/><line x1="112" y1="216" x2="128" y2="216" style="stroke:rgb(0,0,0);stroke-width:1.2"/><line x1="152" y1="216" x2="160" y2="216" style="stroke:rgb(0,0,0);stroke-width:1.2"/><line x1="168" y1="216" x2="176" y2="216" style="stroke:rgb(0,0,0);stroke-width:1.2"/><line x1="240" y1="216" x2="248" y2="216" style="stroke:rgb(0,0,0);stroke-width:1.2"/><line x1="0" y1="224" x2="8" y2="224" style="stroke:rgb(0,0,0);stroke-width:1.2"/><line x1="40" y1="224" x2="48" y2="224" style="stroke:rgb(0,0,0);stroke-width:1.2"/><line x1="56" y1="224" x2="80" y2="224" style="stroke:rgb(0,0,0);stroke-width:1.2"/><line x1="88" y1="224" x2="112" y2="224" style="stroke:rgb(0,0,0);stroke-width:1.2"/><line x1="168" y1="224" x2="184" y2="224" style="stroke:rgb(0,0,0);stroke-width:1.2"/><line x1="192" y1="224" x2="208" y2="224" style="stroke:rgb(0,0,0);stroke-width:1.2"/><line x1="216" y1="224" x2="224" y2="224" style="stroke:rgb(0,0,0);stroke-width:1.2"/><line x1="8" y1="232" x2="24" y2="232" style="stroke:rgb(0,0,0);stroke-width:1.2"/><line x1="32" y1="232" x2="40" y2="232" style="stroke:rgb(0,0,0);stroke-width:1.2"/><line x1="120" y1="232" x2="128" y2="232" style="stroke:rgb(0,0,0);stroke-width:1.2"/><line x1="144" y1="232" x2="152" y2="232" style="stroke:rgb(0,0,0);stroke-width:1.2"/><line x1="160" y1="232" x2="192" y2="232" style="stroke:rgb(0,0,0);stroke-width:1.2"/><line x1="240" y1="232" x2="256" y2="232" style="stroke:rgb(0,0,0);stroke-width:1.2"/><line x1="48" y1="240" x2="56" y2="240" style="stroke:rgb(0,0,0);stroke-width:1.2"/><line x1="72" y1="240" x2="80" y2="240" style="stroke:rgb(0,0,0);stroke-width:1.2"/><line x1="96" y1="240" x2="104" y2="240" style="stroke:rgb(0,0,0);stroke-width:1.2"/><line x1="128" y1="240" x2="136" y2="240" style="stroke:rgb(0,0,0);stroke-width:1.2"/><line x1="192" y1="240" x2="216" y2="240" style="stroke:rgb(0,0,0);stroke-width:1.2"/><line x1="224" y1="240" x2="256" y2="240" style="stroke:rgb(0,0,0);stroke-width:1.2"/><line x1="0" y1="248" x2="8" y2="248" style="stroke:rgb(0,0,0);stroke-width:1.2"/><line x1="24" y1="248" x2="40" y2="248" style="stroke:rgb(0,0,0);stroke-width:1.2"/><line x1="96" y1="248" x2="112" y2="248" style="stroke:rgb(0,0,0);stroke-width:1.2"/><line x1="144" y1="248" x2="184" y2="248" style="stroke:rgb(0,0,0);stroke-width:1.2"/><line x1="192" y1="248" x2="232" y2="248" style="stroke:rgb(0,0,0);stroke-width:1.2"/><line x1="240" y1="248" x2="256" y2="248" style="stroke:rgb(0,0,0);stroke-width:1.2"/><line x1="0" y1="256" x2="256" y2="256" style="stroke:rgb(0,0,0);stroke-width:1.2"/><line x1="8" y1="16" x2="8" y2="24" style="stroke:rgb(0,0,0);stroke-width:1.2"/><line x1="8" y1="32" x2="8" y2="40" style="stroke:rgb(0,0,0);stroke-width:1.2"/><line x1="8" y1="48" x2="8" y2="56" style="stroke:rgb(0,0,0);stroke-width:1.2"/><line x1="8" y1="64" x2="8" y2="72" style="stroke:rgb(0,0,0);stroke-width:1.2"/><line x1="8" y1="96" x2="8" y2="104" style="stroke:rgb(0,0,0);stroke-width:1.2"/><line x1="8" y1="112" x2="8" y2="128" style="stroke:rgb(0,0,0);stroke-width:1.2"/><line x1="8" y1="136" x2="8" y2="144" style="stroke:rgb(0,0,0);stroke-width:1.2"/><line x1="8" y1="152" x2="8" y2="160" style="stroke:rgb(0,0,0);stroke-width:1.2"/><line x1="8" y1="184" x2="8" y2="208" style="stroke:rgb(0,0,0);stroke-width:1.2"/><line x1="8" y1="240" x2="8" y2="248" style="stroke:rgb(0,0,0);stroke-width:1.2"/><line x1="16" y1="16" x2="16" y2="40" style="stroke:rgb(0,0,0);stroke-width:1.2"/><line x1="16" y1="48" x2="16" y2="64" style="stroke:rgb(0,0,0);stroke-width:1.2"/><line x1="16" y1="80" x2="16" y2="88" style="stroke:rgb(0,0,0);stroke-width:1.2"/><line x1="16" y1="96" x2="16" y2="112" style="stroke:rgb(0,0,0);stroke-width:1.2"/><line x1="16" y1="128" x2="16" y2="144" style="stroke:rgb(0,0,0);stroke-width:1.2"/><line x1="16" y1="152" x2="16" y2="160" style="stroke:rgb(0,0,0);stroke-width:1.2"/><line x1="16" y1="168" x2="16" y2="176" style="stroke:rgb(0,0,0);stroke-width:1.2"/><line x1="16" y1="184" x2="16" y2="200" style="stroke:rgb(0,0,0);stroke-width:1.2"/><line x1="16" y1="216" x2="16" y2="240" style="stroke:rgb(0,0,0);stroke-width:1.2"/><line x1="16" y1="248" x2="16" y2="256" style="stroke:rgb(0,0,0);stroke-width:1.2"/><line x1="24" y1="0" x2="24" y2="16" style="stroke:rgb(0,0,0);stroke-width:1.2"/><line x1="24" y1="24" x2="24" y2="48" style="stroke:rgb(0,0,0);stroke-width:1.2"/><line x1="24" y1="64" x2="24" y2="72" style="stroke:rgb(0,0,0);stroke-width:1.2"/><line x1="24" y1="96" x2="24" y2="104" style="stroke:rgb(0,0,0);stroke-width:1.2"/><line x1="24" y1="112" x2="24" y2="120" style="stroke:rgb(0,0,0);stroke-width:1.2"/><line x1="24" y1="128" x2="24" y2="144" style="stroke:rgb(0,0,0);stroke-width:1.2"/><line x1="24" y1="168" x2="24" y2="208" style="stroke:rgb(0,0,0);stroke-width:1.2"/><line x1="24" y1="224" x2="24" y2="232" style="stroke:rgb(0,0,0);stroke-width:1.2"/><line x1="24" y1="240" x2="24" y2="248" style="stroke:rgb(0,0,0);stroke-width:1.2"/><line x1="32" y1="16" x2="32" y2="24" style="stroke:rgb(0,0,0);stroke-width:1.2"/><line x1="32" y1="32" x2="32" y2="40" style="stroke:rgb(0,0,0);stroke-width:1.2"/><line x1="32" y1="48" x2="32" y2="64" style="stroke:rgb(0,0,0);stroke-width:1.2"/><line x1="32" y1="72" x2="32" y2="104" style="stroke:rgb(0,0,0);stroke-width:1.2"/><line x1="32" y1="112" x2="32" y2="144" style="stroke:rgb(0,0,0);stroke-width:1.2"/><line x1="32" y1="152" x2="32" y2="160" style="stroke:rgb(0,0,0);stroke-width:1.2"/><line x1="32" y1="168" x2="32" y2="184" style="stroke:rgb(0,0,0);stroke-width:1.2"/><line x1="32" y1="200" x2="32" y2="216" style="stroke:rgb(0,0,0);stroke-width:1.2"/><line x1="32" y1="224" x2="32" y2="232" style="stroke:rgb(0,0,0);stroke-width:1.2"/><line x1="32" y1="240" x2="32" y2="248" style="stroke:rgb(0,0,0);stroke-width:1.2"/><line x1="40" y1="8" x2="40" y2="16" style="stroke:rgb(0,0,0);stroke-width:1.2"/><line x1="40" y1="32" x2="40" y2="48" style="stroke:rgb(0,0,0);stroke-width:1.2"/><line x1="40" y1="56" x2="40" y2="64" style="stroke:rgb(0,0,0);stroke-width:1.2"/><line x1="40" y1="72" x2="40" y2="88" style="stroke:rgb(0,0,0);stroke-width:1.2"/><line x1="40" y1="104" x2="40" y2="112" style="stroke:rgb(0,0,0);stroke-width:1.2"/><line x1="40" y1="120" x2="40" y2="128" style="stroke:rgb(0,0,0);stroke-width:1.2"/><line x1="40" y1="136" x2="40" y2="216" style="stroke:rgb(0,0,0);stroke-width:1.2"/><line x1="40" y1="224" x2="40" y2="256" style="stroke:rgb(0,0,0);stroke-width:1.2"/><line x1="48" y1="0" x2="48" y2="32" style="stroke:rgb(0,0,0);stroke-width:1.2"/><line x1="48" y1="40" x2="48" y2="72" style="stroke:rgb(0,0,0);stroke-width:1.2"/><line x1="48" y1="80" x2="48" y2="88" style="stroke:rgb(0,0,0);stroke-width:1.2"/><line x1="48" y1="104" x2="48" y2="128" style="stroke:rgb(0,0,0);stroke-width:1.2"/><line x1="48" y1="144" x2="48" y2="160" style="stroke:rgb(0,0,0);stroke-width:1.2"/><line x1="48" y1="184" x2="48" y2="216" style="stroke:rgb(0,0,0);stroke-width:1.2"/><line x1="48" y1="224" x2="48" y2="248" style="stroke:rgb(0,0,0);stroke-width:1.2"/><line x1="56" y1="0" x2="56" y2="24" style="stroke:rgb(0,0,0);stroke-width:1.2"/><line x1="56" y1="32" x2="56" y2="88" style="stroke:rgb(0,0,0);stroke-width:1.2"/><line x1="56" y1="96" x2="56" y2="112" style="stroke:rgb(0,0,0);stroke-width:1.2"/><line x1="56" y1="128" x2="56" y2="144" style="stroke:rgb(0,0,0);stroke-width:1.2"/><line x1="56" y1="152" x2="56" y2="168" style="stroke:rgb(0,0,0);stroke-width:1.2"/><line x1="56" y1="184" x2="56" y2="192" style="stroke:rgb(0,0,0);stroke-width:1.2"/><line x1="56" y1="200" x2="56" y2="208" style="stroke:rgb(0,0,0);stroke-width:1.2"/><line x1="56" y1="232" x2="56" y2="248" style="stroke:rgb(0,0,0);stroke-width:1.2"/><line x1="64" y1="0" x2="64" y2="8" style="stroke:rgb(0,0,0);stroke-width:1.2"/><line x1="64" y1="32" x2="64" y2="40" style="stroke:rgb(0,0,0);stroke-width:1.2"/><line x1="64" y1="48" x2="64" y2="64" style="stroke:rgb(0,0,0);stroke-width:1.2"/><line x1="64" y1="72" x2="64" y2="80" style="stroke:rgb(0,0,0);stroke-width:1.2"/><line x1="64" y1="104" x2="64" y2="112" style="stroke:rgb(0,0,0);stroke-width:1.2"/><line x1="64" y1="128" x2="64" y2="136" style="stroke:rgb(0,0,0);stroke-width:1.2"/><line x1="64" y1="152" x2="64" y2="160" style="stroke:rgb(0,0,0);stroke-width:1.2"/><line x1="64" y1="184" x2="64" y2="208" style="stroke:rgb(0,0,0);stroke-width:1.2"/><line x1="64" y1="216" x2="64" y2="232" style="stroke:rgb(0,0,0);stroke-width:1.2"/><line x1="64" y1="240" x2="64" y2="256" style="stroke:rgb(0,0,0);stroke-width:1.2"/><line x1="72" y1="0" x2="72" y2="8" style="stroke:rgb(0,0,0);stroke-width:1.2"/><line x1="72" y1="16" x2="72" y2="24" style="stroke:rgb(0,0,0);stroke-width:1.2"/><line x1="72" y1="32" x2="72" y2="40" style="stroke:rgb(0,0,0);stroke-width:1.2"/><line x1="72" y1="56" x2="72" y2="64" style="stroke:rgb(0,0,0);stroke-width:1.2"/><line x1="72" y1="72" x2="72" y2="80" style="stroke:rgb(0,0,0);stroke-width:1.2"/><line x1="72" y1="88" x2="72" y2="128" style="stroke:rgb(0,0,0);stroke-width:1.2"/><line x1="72" y1="136" x2="72" y2="144" style="stroke:rgb(0,0,0);stroke-width:1.2"/><line x1="72" y1="152" x2="72" y2="192" style="stroke:rgb(0,0,0);stroke-width:1.2"/><line x1="72" y1="208" x2="72" y2="216" style="stroke:rgb(0,0,0);stroke-width:1.2"/><line x1="72" y1="224" x2="72" y2="232" style="stroke:rgb(0,0,0);stroke-width:1.2"/><line x1="72" y1="240" x2="72" y2="248" style="stroke:rgb(0,0,0);stroke-width:1.2"/><line x1="80" y1="0" x2="80" y2="8" style="stroke:rgb(0,0,0);stroke-width:1.2"/><line x1="80" y1="24" x2="80" y2="40" style="stroke:rgb(0,0,0);stroke-width:1.2"/><line x1="80" y1="48" x2="80" y2="64" style="stroke:rgb(0,0,0);stroke-width:1.2"/><line x1="80" y1="72" x2="80" y2="80" style="stroke:rgb(0,0,0);stroke-width:1.2"/><line x1="80" y1="88" x2="80" y2="144" style="stroke:rgb(0,0,0);stroke-width:1.2"/><line x1="80" y1="160" x2="80" y2="168" style="stroke:rgb(0,0,0);stroke-width:1.2"/><line x1="80" y1="176" x2="80" y2="216" style="stroke:rgb(0,0,0);stroke-width:1.2"/><line x1="80" y1="224" x2="80" y2="256" style="stroke:rgb(0,0,0);stroke-width:1.2"/><line x1="88" y1="0" x2="88" y2="16" style="stroke:rgb(0,0,0);stroke-width:1.2"/><line x1="88" y1="24" x2="88" y2="48" style="stroke:rgb(0,0,0);stroke-width:1.2"/><line x1="88" y1="56" x2="88" y2="64" style="stroke:rgb(0,0,0);stroke-width:1.2"/><line x1="88" y1="72" x2="88" y2="80" style="stroke:rgb(0,0,0);stroke-width:1.2"/><line x1="88" y1="104" x2="88" y2="112" style="stroke:rgb(0,0,0);stroke-width:1.2"/><line x1="88" y1="128" x2="88" y2="160" style="stroke:rgb(0,0,0);stroke-width:1.2"/><line x1="88" y1="168" x2="88" y2="176" style="stroke:rgb(0,0,0);stroke-width:1.2"/><line x1="88" y1="184" x2="88" y2="200" style="stroke:rgb(0,0,0);stroke-width:1.2"/><line x1="88" y1="216" x2="88" y2="240" style="stroke:rgb(0,0,0);stroke-width:1.2"/><line x1="88" y1="248" x2="88" y2="256" style="stroke:rgb(0,0,0);stroke-width:1.2"/><line x1="96" y1="16" x2="96" y2="24" style="stroke:rgb(0,0,0);stroke-width:1.2"/><line x1="96" y1="32" x2="96" y2="40" style="stroke:rgb(0,0,0);stroke-width:1.2"/><line x1="96" y1="56" x2="96" y2="104" style="stroke:rgb(0,0,0);stroke-width:1.2"/><line x1="96" y1="112" x2="96" y2="136" style="stroke:rgb(0,0,0);stroke-width:1.2"/><line x1="96" y1="144" x2="96" y2="152" style="stroke:rgb(0,0,0);stroke-width:1.2"/><line x1="96" y1="160" x2="96" y2="176" style="stroke:rgb(0,0,0);stroke-width:1.2"/><line x1="96" y1="184" x2="96" y2="216" style="stroke:rgb(0,0,0);stroke-width:1.2"/><line x1="96" y1="224" x2="96" y2="232" style="stroke:rgb(0,0,0);stroke-width:1.2"/><line x1="96" y1="240" x2="96" y2="248" style="stroke:rgb(0,0,0);stroke-width:1.2"/><line x1="104" y1="0" x2="104" y2="16" style="stroke:rgb(0,0,0);stroke-width:1.2"/><line x1="104" y1="24" x2="104" y2="40" style="stroke:rgb(0,0,0);stroke-width:1.2"/><line x1="104" y1="48" x2="104" y2="56" style="stroke:rgb(0,0,0);stroke-width:1.2"/><line x1="104" y1="72" x2="104" y2="80" style="stroke:rgb(0,0,0);stroke-width:1.2"/><line x1="104" y1="104" x2="104" y2="112" style="stroke:rgb(0,0,0);stroke-width:1.2"/><line x1="104" y1="136" x2="104" y2="144" style="stroke:rgb(0,0,0);stroke-width:1.2"/><line x1="104" y1="152" x2="104" y2="160" style="stroke:rgb(0,0,0);stroke-width:1.2"/><line x1="104" y1="184" x2="104" y2="192" style="stroke:rgb(0,0,0);stroke-width:1.2"/><line x1="104" y1="224" x2="104" y2="232" style="stroke:rgb(0,0,0);stroke-width:1.2"/><line x1="112" y1="16" x2="112" y2="24" style="stroke:rgb(0,0,0);stroke-width:1.2"/><line x1="112" y1="40" x2="112" y2="56" style="stroke:rgb(0,0,0);stroke-width:1.2"/><line x1="112" y1="64" x2="112" y2="88" style="stroke:rgb(0,0,0);stroke-width:1.2"/><line x1="112" y1="104" x2="112" y2="120" style="stroke:rgb(0,0,0);stroke-width:1.2"/><line x1="112" y1="136" x2="112" y2="144" style="stroke:rgb(0,0,0);stroke-width:1.2"/><line x1="112" y1="160" x2="112" y2="176" style="stroke:rgb(0,0,0);stroke-width:1.2"/><line x1="112" y1="184" x2="112" y2="192" style="stroke:rgb(0,0,0);stroke-width:1.2"/><line x1="112" y1="200" x2="112" y2="208" style="stroke:rgb(0,0,0);stroke-width:1.2"/><line x1="112" y1="224" x2="112" y2="232" style="stroke:rgb(0,0,0);stroke-width:1.2"/><line x1="112" y1="240" x2="112" y2="256" style="stroke:rgb(0,0,0);stroke-width:1.2"/><line x1="120" y1="0" x2="120" y2="168" style="stroke:rgb(0,0,0);stroke-width:1.2"/><line x1="120" y1="176" x2="120" y2="256" style="stroke:rgb(0,0,0);stroke-width:1.2"/><line x1="128" y1="8" x2="128" y2="24" style="stroke:rgb(0,0,0);stroke-width:1.2"/><line x1="128" y1="40" x2="128" y2="48" style="stroke:rgb(0,0,0);stroke-width:1.2"/><line x1="128" y1="80" x2="128" y2="96" style="stroke:rgb(0,0,0);stroke-width:1.2"/><line x1="128" y1="120" x2="128" y2="128" style="stroke:rgb(0,0,0);stroke-width:1.2"/><line x1="128" y1="144" x2="128" y2="152" style="stroke:rgb(0,0,0);stroke-width:1.2"/><line x1="128" y1="176" x2="128" y2="184" style="stroke:rgb(0,0,0);stroke-width:1.2"/><line x1="128" y1="192" x2="128" y2="200" style="stroke:rgb(0,0,0);stroke-width:1.2"/><line x1="128" y1="216" x2="128" y2="224" style="stroke:rgb(0,0,0);stroke-width:1.2"/><line x1="128" y1="240" x2="128" y2="248" style="stroke:rgb(0,0,0);stroke-width:1.2"/><line x1="136" y1="8" x2="136" y2="16" style="stroke:rgb(0,0,0);stroke-width:1.2"/><line x1="136" y1="24" x2="136" y2="56" style="stroke:rgb(0,0,0);stroke-width:1.2"/><line x1="136" y1="64" x2="136" y2="72" style="stroke:rgb(0,0,0);stroke-width:1.2"/><line x1="136" y1="80" x2="136" y2="88" style="stroke:rgb(0,0,0);stroke-width:1.2"/><line x1="136" y1="96" x2="136" y2="112" style="stroke:rgb(0,0,0);stroke-width:1.2"/><line x1="136" y1="120" x2="136" y2="176" style="stroke:rgb(0,0,0);stroke-width:1.2"/><line x1="136" y1="184" x2="136" y2="256" style="stroke:rgb(0,0,0);stroke-width:1.2"/><line x1="144" y1="8" x2="144" y2="16" style="stroke:rgb(0,0,0);stroke-width:1.2"/><line x1="144" y1="24" x2="144" y2="32" style="stroke:rgb(0,0,0);stroke-width:1.2"/><line x1="144" y1="40" x2="144" y2="48" style="stroke:rgb(0,0,0);stroke-width:1.2"/><line x1="144" y1="64" x2="144" y2="80" style="stroke:rgb(0,0,0);stroke-width:1.2"/><line x1="144" y1="96" x2="144" y2="104" style="stroke:rgb(0,0,0);stroke-width:1.2"/><line x1="144" y1="112" x2="144" y2="128" style="stroke:rgb(0,0,0);stroke-width:1.2"/><line x1="144" y1="136" x2="144" y2="176" style="stroke:rgb(0,0,0);stroke-width:1.2"/><line x1="144" y1="184" x2="144" y2="256" style="stroke:rgb(0,0,0);stroke-width:1.2"/><line x1="152" y1="0" x2="152" y2="40" style="stroke:rgb(0,0,0);stroke-width:1.2"/><line x1="152" y1="48" x2="152" y2="88" style="stroke:rgb(0,0,0);stroke-width:1.2"/><line x1="152" y1="96" x2="152" y2="104" style="stroke:rgb(0,0,0);stroke-width:1.2"/><line x1="152" y1="112" x2="152" y2="120" style="stroke:rgb(0,0,0);stroke-width:1.2"/><line x1="152" y1="168" x2="152" y2="176" style="stroke:rgb(0,0,0);stroke-width:1.2"/><line x1="152" y1="192" x2="152" y2="200" style="stroke:rgb(0,0,0);stroke-width:1.2"/><line x1="152" y1="208" x2="152" y2="240" style="stroke:rgb(0,0,0);stroke-width:1.2"/><line x1="160" y1="0" x2="160" y2="8" style="stroke:rgb(0,0,0);stroke-width:1.2"/><line x1="160" y1="32" x2="160" y2="40" style="stroke:rgb(0,0,0);stroke-width:1.2"/><line x1="160" y1="48" x2="160" y2="56" style="stroke:rgb(0,0,0);stroke-width:1.2"/><line x1="160" y1="80" x2="160" y2="128" style="stroke:rgb(0,0,0);stroke-width:1.2"/><line x1="160" y1="160" x2="160" y2="184" style="stroke:rgb(0,0,0);stroke-width:1.2"/><line x1="160" y1="200" x2="160" y2="208" style="stroke:rgb(0,0,0);stroke-width:1.2"/><line x1="160" y1="216" x2="160" y2="224" style="stroke:rgb(0,0,0);stroke-width:1.2"/><line x1="160" y1="232" x2="160" y2="240" style="stroke:rgb(0,0,0);stroke-width:1.2"/><line x1="168" y1="0" x2="168" y2="8" style="stroke:rgb(0,0,0);stroke-width:1.2"/><line x1="168" y1="32" x2="168" y2="48" style="stroke:rgb(0,0,0);stroke-width:1.2"/><line x1="168" y1="56" x2="168" y2="72" style="stroke:rgb(0,0,0);stroke-width:1.2"/><line x1="168" y1="80" x2="168" y2="104" style="stroke:rgb(0,0,0);stroke-width:1.2"/><line x1="168" y1="112" x2="168" y2="136" style="stroke:rgb(0,0,0);stroke-width:1.2"/><line x1="168" y1="152" x2="168" y2="160" style="stroke:rgb(0,0,0);stroke-width:1.2"/><line x1="168" y1="168" x2="168" y2="184" style="stroke:rgb(0,0,0);stroke-width:1.2"/><line x1="168" y1="200" x2="168" y2="232" style="stroke:rgb(0,0,0);stroke-width:1.2"/><line x1="168" y1="240" x2="168" y2="248" style="stroke:rgb(0,0,0);stroke-width:1.2"/><line x1="176" y1="8" x2="176" y2="64" style="stroke:rgb(0,0,0);stroke-width:1.2"/><line x1="176" y1="80" x2="176" y2="96" style="stroke:rgb(0,0,0);stroke-width:1.2"/><line x1="176" y1="104" x2="176" y2="112" style="stroke:rgb(0,0,0);stroke-width:1.2"/><line x1="176" y1="128" x2="176" y2="136" style="stroke:rgb(0,0,0);stroke-width:1.2"/><line x1="176" y1="160" x2="176" y2="176" style="stroke:rgb(0,0,0);stroke-width:1.2"/><line x1="176" y1="208" x2="176" y2="216" style="stroke:rgb(0,0,0);stroke-width:1.2"/><line x1="176" y1="232" x2="176" y2="240" style="stroke:rgb(0,0,0);stroke-width:1.2"/><line x1="184" y1="0" x2="184" y2="8" style="stroke:rgb(0,0,0);stroke-width:1.2"/><line x1="184" y1="40" x2="184" y2="48" style="stroke:rgb(0,0,0);stroke-width:1.2"/><line x1="184" y1="64" x2="184" y2="72" style="stroke:rgb(0,0,0);stroke-width:1.2"/><line x1="184" y1="80" x2="184" y2="96" style="stroke:rgb(0,0,0);stroke-width:1.2"/><line x1="184" y1="112" x2="184" y2="128" style="stroke:rgb(0,0,0);stroke-width:1.2"/><line x1="184" y1="160" x2="184" y2="168" style="stroke:rgb(0,0,0);stroke-width:1.2"/><line x1="184" y1="208" x2="184" y2="224" style="stroke:rgb(0,0,0);stroke-width:1.2"/><line x1="184" y1="232" x2="184" y2="240" style="stroke:rgb(0,0,0);stroke-width:1.2"/><line x1="192" y1="8" x2="192" y2="16" style="stroke:rgb(0,0,0);stroke-width:1.2"/><line x1="192" y1="32" x2="192" y2="40" style="stroke:rgb(0,0,0);stroke-width:1.2"/><line x1="192" y1="48" x2="192" y2="64" style="stroke:rgb(0,0,0);stroke-width:1.2"/><line x1="192" y1="80" x2="192" y2="96" style="stroke:rgb(0,0,0);stroke-width:1.2"/><line x1="192" y1="112" x2="192" y2="136" style="stroke:rgb(0,0,0);stroke-width:1.2"/><line x1="192" y1="144" x2="192" y2="240" style="stroke:rgb(0,0,0);stroke-width:1.2"/><line x1="192" y1="248" x2="192" y2="256" style="stroke:rgb(0,0,0);stroke-width:1.2"/><line x1="200" y1="8" x2="200" y2="16" style="stroke:rgb(0,0,0);stroke-width:1.2"/><line x1="200" y1="24" x2="200" y2="48" style="stroke:rgb(0,0,0);stroke-width:1.2"/><line x1="200" y1="64" x2="200" y2="80" style="stroke:rgb(0,0,0);stroke-width:1.2"/><line x1="200" y1="96" x2="200" y2="104" style="stroke:rgb(0,0,0);stroke-width:1.2"/><line x1="200" y1="112" x2="200" y2="120" style="stroke:rgb(0,0,0);stroke-width:1.2"/><line x1="200" y1="144" x2="200" y2="152" style="stroke:rgb(0,0,0);stroke-width:1.2"/><line x1="200" y1="160" x2="200" y2="176" style="stroke:rgb(0,0,0);stroke-width:1.2"/><line x1="200" y1="184" x2="200" y2="200" style="stroke:rgb(0,0,0);stroke-width:1.2"/><line x1="200" y1="216" x2="200" y2="224" style="stroke:rgb(0,0,0);stroke-width:1.2"/><line x1="200" y1="232" x2="200" y2="240" style="stroke:rgb(0,0,0);stroke-width:1.2"/><line x1="208" y1="0" x2="208" y2="16" style="stroke:rgb(0,0,0);stroke-width:1.2"/><line x1="208" y1="24" x2="208" y2="136" style="stroke:rgb(0,0,0);stroke-width:1.2"/><line x1="208" y1="152" x2="208" y2="160" style="stroke:rgb(0,0,0);stroke-width:1.2"/><line x1="208" y1="168" x2="208" y2="176" style="stroke:rgb(0,0,0);stroke-width:1.2"/><line x1="208" y1="200" x2="208" y2="208" style="stroke:rgb(0,0,0);stroke-width:1.2"/><line x1="208" y1="216" x2="208" y2="224" style="stroke:rgb(0,0,0);stroke-width:1.2"/><line x1="208" y1="232" x2="208" y2="240" style="stroke:rgb(0,0,0);stroke-width:1.2"/><line x1="216" y1="32" x2="216" y2="40" style="stroke:rgb(0,0,0);stroke-width:1.2"/><line x1="216" y1="48" x2="216" y2="72" style="stroke:rgb(0,0,0);stroke-width:1.2"/><line x1="216" y1="88" x2="216" y2="96" style="stroke:rgb(0,0,0);stroke-width:1.2"/><line x1="216" y1="128" x2="216" y2="136" style="stroke:rgb(0,0,0);stroke-width:1.2"/><line x1="216" y1="152" x2="216" y2="160" style="stroke:rgb(0,0,0);stroke-width:1.2"/><line x1="216" y1="168" x2="216" y2="184" style="stroke:rgb(0,0,0);stroke-width:1.2"/><line x1="216" y1="192" x2="216" y2="216" style="stroke:rgb(0,0,0);stroke-width:1.2"/><line x1="216" y1="224" x2="216" y2="240" style="stroke:rgb(0,0,0);stroke-width:1.2"/><line x1="224" y1="0" x2="224" y2="24" style="stroke:rgb(0,0,0);stroke-width:1.2"/><line x1="224" y1="32" x2="224" y2="40" style="stroke:rgb(0,0,0);stroke-width:1.2"/><line x1="224" y1="48" x2="224" y2="56" style="stroke:rgb(0,0,0);stroke-width:1.2"/><line x1="224" y1="72" x2="224" y2="88" style="stroke:rgb(0,0,0);stroke-width:1.2"/><line x1="224" y1="104" x2="224" y2="112" style="stroke:rgb(0,0,0);stroke-width:1.2"/><line x1="224" y1="120" x2="224" y2="136" style="stroke:rgb(0,0,0);stroke-width:1.2"/><line x1="224" y1="144" x2="224" y2="160" style="stroke:rgb(0,0,0);stroke-width:1.2"/><line x1="224" y1="168" x2="224" y2="176" style="stroke:rgb(0,0,0);stroke-width:1.2"/><line x1="224" y1="184" x2="224" y2="192" style="stroke:rgb(0,0,0);stroke-width:1.2"/><line x1="224" y1="208" x2="224" y2="216" style="stroke:rgb(0,0,0);stroke-width:1.2"/><line x1="224" y1="224" x2="224" y2="232" style="stroke:rgb(0,0,0);stroke-width:1.2"/><line x1="232" y1="8" x2="232" y2="32" style="stroke:rgb(0,0,0);stroke-width:1.2"/><line x1="232" y1="56" x2="232" y2="88" style="stroke:rgb(0,0,0);stroke-width:1.2"/><line x1="232" y1="128" x2="232" y2="136" style="stroke:rgb(0,0,0);stroke-width:1.2"/><line x1="232" y1="144" x2="232" y2="184" style="stroke:rgb(0,0,0);stroke-width:1.2"/><line x1="232" y1="192" x2="232" y2="224" style="stroke:rgb(0,0,0);stroke-width:1.2"/><line x1="232" y1="232" x2="232" y2="240" style="stroke:rgb(0,0,0);stroke-width:1.2"/><line x1="240" y1="8" x2="240" y2="16" style="stroke:rgb(0,0,0);stroke-width:1.2"/><line x1="240" y1="32" x2="240" y2="56" style="stroke:rgb(0,0,0);stroke-width:1.2"/><line x1="240" y1="64" x2="240" y2="80" style="stroke:rgb(0,0,0);stroke-width:1.2"/><line x1="240" y1="112" x2="240" y2="128" style="stroke:rgb(0,0,0);stroke-width:1.2"/><line x1="240" y1="144" x2="240" y2="152" style="stroke:rgb(0,0,0);stroke-width:1.2"/><line x1="240" y1="168" x2="240" y2="184" style="stroke:rgb(0,0,0);stroke-width:1.2"/><line x1="240" y1="192" x2="240" y2="200" style="stroke:rgb(0,0,0);stroke-width:1.2"/><line x1="240" y1="208" x2="240" y2="224" style="stroke:rgb(0,0,0);stroke-width:1.2"/><line x1="248" y1="0" x2="248" y2="16" style="stroke:rgb(0,0,0);stroke-width:1.2"/><line x1="248" y1="24" x2="248" y2="32" style="stroke:rgb(0,0,0);stroke-width:1.2"/><line x1="248" y1="64" x2="248" y2="80" style="stroke:rgb(0,0,0);stroke-width:1.2"/><line x1="248" y1="88" x2="248" y2="96" style="stroke:rgb(0,0,0);stroke-width:1.2"/><line x1="248" y1="112" x2="248" y2="136" style="stroke:rgb(0,0,0);stroke-width:1.2"/><line x1="248" y1="144" x2="248" y2="152" style="stroke:rgb(0,0,0);stroke-width:1.2"/><line x1="248" y1="168" x2="248" y2="176" style="stroke:rgb(0,0,0);stroke-width:1.2"/><line x1="248" y1="200" x2="248" y2="208" style="stroke:rgb(0,0,0);stroke-width:1.2"/><line x1="248" y1="224" x2="248" y2="232" style="stroke:rgb(0,0,0);stroke-width:1.2"/><line x1="256" y1="0" x2="256" y2="256" style="stroke:rgb(0,0,0);stroke-width:1.2"/></svg>
